<svg 
 xmlns="http://www.w3.org/2000/svg"
 xmlns:xlink="http://www.w3.org/1999/xlink"
 width="17px" height="19px">
<path fill-rule="evenodd"  fill="rgb(117, 117, 119)"
 d="M14.289,18.799 L5.084,18.799 C3.920,18.799 3.199,17.562 3.199,16.399 L3.199,13.999 L4.399,13.999 L4.381,16.690 C4.381,17.077 5.211,17.599 5.599,17.599 L13.999,17.599 C14.387,17.599 15.199,16.787 15.199,16.399 L15.199,3.199 C15.199,2.811 14.387,1.999 13.999,1.999 L5.599,1.999 C5.211,1.999 4.381,2.521 4.381,2.908 L4.399,5.599 L3.199,5.599 L3.199,3.199 C3.199,2.036 3.920,0.799 5.084,0.799 L14.289,0.799 C15.453,0.799 16.399,1.745 16.399,2.908 L16.399,16.690 C16.399,17.853 15.453,18.799 14.289,18.799 ZM6.799,6.799 L8.000,5.599 L12.406,9.799 L8.000,13.999 L6.799,12.800 L9.199,10.399 L0.799,10.399 L0.799,9.199 L9.199,9.199 L6.799,6.799 Z"/>
</svg>