<?xml version="1.0" encoding="utf-8"?>
<!-- Generator: Adobe Illustrator 22.0.1, SVG Export Plug-In . SVG Version: 6.00 Build 0)  -->
<svg version="1.1" id="Слой_3" xmlns="http://www.w3.org/2000/svg" xmlns:xlink="http://www.w3.org/1999/xlink" x="0px" y="0px"
	 width="130.2px" height="20px" viewBox="0 0 130.2 20" style="enable-background:new 0 0 130.2 20;" xml:space="preserve">
<style type="text/css">
	.st0{fill:#48484B;}
	.st1{fill:#643FED;}
</style>
<g>
	<path class="st0" d="M7.7,12.3H3.6l-1.2,2.9H0L5.6,2.8h2.9l2.1,12.4H8.1L7.7,12.3z M7.5,10.5l-0.7-6l-2.4,6H7.5z"/>
	<path class="st0" d="M20.7,6.6l-1.2,1.4c-0.6-0.5-1.1-0.7-1.7-0.7c-2.2,0-2.7,2.6-2.7,4.4c0,1.5,0.6,2,1.7,2c0.7,0,1.3-0.3,2-0.7
		l0.9,1.5c-1,0.7-2,1-3.2,1c-2.4,0-3.8-1.5-3.8-4s1.4-6,5.1-6C18.9,5.4,19.9,5.8,20.7,6.6z"/>
	<path class="st0" d="M24,11.7c0.1,1.5,0.8,2,1.9,2c0.9,0,1.6-0.3,2.5-0.9l0.9,1.4c-1,0.7-2.2,1.2-3.6,1.2c-2.6,0-3.9-1.5-3.9-4
		c0-2.6,1.4-6.1,5.2-6.1c2.2,0,3.3,1.2,3.3,2.5C30.2,10.6,27.2,11.4,24,11.7z M27.8,8c0-0.4-0.2-1-1.1-1c-1.6,0-2.4,1.6-2.6,3.1
		C26.7,10,27.8,9.3,27.8,8z"/>
	<path class="st1" d="M43.8,15.2h-2.3l0.4-5.3c0.1-1.8,0.3-3.6,0.5-5.1L39,13.9h-2.3l-1.1-9c-0.1,1.7-0.4,3.5-0.8,5.3l-1,5.1h-2.3
		l2.7-12.4h2.9l1,8.8l3.3-8.8h3.2L43.8,15.2z"/>
	<path class="st1" d="M51.5,15.3c-1,2.3-2.7,3.7-5.5,3.9L46,17.5c1.9-0.3,2.6-0.9,3.4-2.3h-0.8l-1.7-9.5h2.4l0.9,7.9l3.2-7.9h2.4
		L51.5,15.3z"/>
	<path class="st0" d="M66.7,6.2c0,2.3-1.4,4.7-5.4,4.7h-1.5l-0.6,4.3h-2.4l1.7-12.4h3.6C65,2.8,66.7,3.9,66.7,6.2z M64.2,6.2
		c0-1.2-0.8-1.7-2.2-1.7h-1.3l-0.6,4.6h1.2C63.6,9.1,64.2,7.6,64.2,6.2z"/>
	<path class="st0" d="M76.5,6.3l-0.9,6.4c-0.1,0.6,0,1,0.5,1.2l-0.6,1.5c-1-0.1-1.7-0.6-2-1.6c-0.7,1-1.6,1.6-2.8,1.6
		c-2,0-3.1-1.5-3.1-3.7c0-2.7,1.4-6.3,5.3-6.3C74.1,5.4,75.4,5.7,76.5,6.3z M70,11.8c0,1.4,0.5,2,1.3,2c0.9,0,1.5-0.6,2.2-1.5
		l0.7-4.9c-0.4-0.2-0.8-0.3-1.3-0.3C70.7,7.1,70,9.8,70,11.8z"/>
	<path class="st0" d="M80.1,5.7h2l0,1.1c1-1.1,1.9-1.4,2.8-1.4c1.9,0,2.9,1.4,2.9,3.7c0,2.7-1.3,6.3-5.1,6.3c-0.7,0-1.3-0.1-1.8-0.3
		l-0.5,3.7l-2.3,0.3L80.1,5.7z M85.5,9.1c0-1.5-0.6-2-1.4-2c-0.8,0-1.5,0.5-2.1,1.2l-0.7,5.1c0.5,0.2,0.8,0.3,1.4,0.3
		C84.8,13.8,85.5,11.1,85.5,9.1z"/>
	<path class="st0" d="M92.4,11.7c0.1,1.5,0.8,2,1.9,2c0.9,0,1.6-0.3,2.5-0.9l0.9,1.4c-1,0.7-2.2,1.2-3.6,1.2c-2.6,0-3.9-1.5-3.9-4
		c0-2.6,1.3-6.1,5.2-6.1c2.2,0,3.3,1.2,3.3,2.5C98.6,10.6,95.6,11.4,92.4,11.7z M96.3,8c0-0.4-0.2-1-1.1-1c-1.6,0-2.4,1.6-2.6,3.1
		C95.1,10,96.3,9.3,96.3,8z"/>
	<path class="st0" d="M107.4,5.6l-0.7,2.2c-0.3-0.1-0.5-0.1-0.8-0.1c-1.2,0-1.9,1.1-2.5,2.8l-0.7,4.7h-2.3l1.3-9.5h2l-0.1,1.9
		c0.7-1.4,1.7-2.1,2.7-2.1C106.8,5.4,107.1,5.5,107.4,5.6z"/>
</g>
<g>
	<g>
		<g>
			<path class="st0" d="M128.8,6.5c-0.4,0.1-0.7,0.6-0.5,1c1.3,4.3-1.1,8.8-5.3,10.2c-4.3,1.3-8.8-1.1-10.2-5.3s1.1-8.8,5.3-10.2
				c2.1-0.6,4.3-0.4,6.2,0.6c0.4,0.2,0.9,0.1,1.1-0.3c0.2-0.4,0.1-0.9-0.3-1.1c-2.3-1.2-5-1.5-7.4-0.7c-5.1,1.6-8,7.1-6.4,12.2
				c1.6,5.1,7.1,8,12.2,6.4s8-7.1,6.4-12.2C129.7,6.6,129.2,6.4,128.8,6.5z"/>
		</g>
	</g>
</g>
<path class="st1" d="M127.5,2.5l1.4,1.3l-9.2,9.9l-4.1-4l1.4-1.4l2.7,2.6L127.5,2.5z"/>
</svg>
